<?xml version="1.0" encoding="UTF-8" standalone="no"?>
<!-- Created with Inkscape (http://www.inkscape.org/) -->

<svg
   version="1.1"
   id="svg1"
   width="504.15347"
   height="553.87262"
   viewBox="0 0 504.15347 553.87262"
   xmlns="http://www.w3.org/2000/svg"
   xmlns:svg="http://www.w3.org/2000/svg">
  <defs
     id="defs1" />
  <g
     id="g1"
     transform="translate(-28.563951,-4.0117927)">
    <path
       style="fill:#32cf0f;stroke-width:2.3449"
       d="M 186.84456,506.88072 C 136.5465,478.82843 80.356876,447.66172 61.978743,437.62133 L 28.563952,419.36613 V 271.8473 124.32845 h 1.970282 c 1.083619,0 7.678637,3.14651 14.655606,6.99221 6.976932,3.84573 13.977554,7.01134 15.556919,7.03469 l 2.871581,0.0425 0.645771,-36.09098 0.645758,-36.090965 69.174491,40.945045 c 38.04596,22.51977 84.73875,50.01292 103.76173,61.09592 l 34.58724,20.15086 v 145.1955 145.19558 l -2.93112,-0.97682 -2.93113,-0.97679 -0.60446,-140.92473 -0.60445,-140.92477 -87.32922,-52.09595 C 130.00189,114.24698 87.413597,88.849998 83.392282,86.462024 79.370967,84.07405 74.886352,82.120253 73.426464,82.120253 H 70.772109 V 229.56171 377.00315 l 3.708527,3.07779 c 2.039668,1.69278 24.990349,15.87425 51.001524,31.51442 26.01116,15.64014 70.5075,42.51371 98.88076,59.71904 28.37326,17.20533 53.17417,31.69857 55.11312,32.20723 l 3.52537,0.9248 100.82258,-60.60788 c 55.45242,-33.33437 103.67009,-62.49327 107.15036,-64.7976 l 6.32778,-4.18967 0.70692,-10.94765 0.70692,-10.94767 11.13149,-5.86224 11.13148,-5.86226 0.007,-20.51784 0.007,-20.51786 h -1.26584 c -0.69623,0 -5.40262,2.1104 -10.45864,4.6898 -5.05601,2.57938 -9.76241,4.68979 -10.45863,4.68979 -0.69621,0 -1.26586,-6.31087 -1.26586,-14.02415 v -14.02419 l 11.13826,-5.32122 11.13827,-5.32126 0.68106,-19.3454 0.68107,-19.34541 -4.1984,0.083 c -2.30914,0.0457 -6.83644,1.59111 -10.06067,3.43424 -3.22424,1.84314 -6.65366,3.38857 -7.62092,3.43424 l -1.75867,0.0831 v -14.02987 -14.0299 l 11.72449,-5.94125 11.72448,-5.94124 V 179.3939 159.50177 l -2.93111,0.0141 c -1.61213,0.007 -5.95354,1.59075 -9.64763,3.51735 -3.69407,1.92658 -7.65108,3.50289 -8.79336,3.50289 h -2.07687 v -11.62103 -11.62105 l 16.23719,-9.48303 c 8.93045,-5.21567 16.84448,-9.48303 17.58673,-9.48303 h 1.34954 v 147.45314 147.45312 l -33.41479,18.18614 c -18.37813,10.00237 -74.05274,40.66395 -123.72136,68.13685 -49.66858,27.47288 -91.87675,50.48541 -93.79591,51.13893 l -3.48935,1.18823 z m 140.10764,9.75261 27.55255,-15.10572 v -14.15555 -14.1556 l -3.09254,1.18673 c -1.70089,0.6527 -18.13225,10.26243 -36.51407,21.35497 -18.38184,11.09251 -33.7564,20.16823 -34.1657,20.16823 -0.4093,0 -15.60464,-8.99105 -33.76742,-19.98013 -18.1628,-10.98905 -34.68934,-20.61943 -36.72562,-21.40085 l -3.70239,-1.42072 0.70581,14.61846 0.70582,14.61849 36.12156,19.54236 36.12153,19.54238 9.60398,-4.85365 c 5.28216,-2.66953 22.00259,-11.65127 37.15649,-19.9594 z M 178.63742,470.30561 v -15.13712 l -15.96444,-9.48431 c -8.78044,-5.21637 -16.69448,-9.48432 -17.58674,-9.48432 h -1.62229 v 15.16226 15.16224 l 17.00051,9.42818 c 9.35029,5.1855 17.26431,9.44213 17.58674,9.45917 0.32241,0.0164 0.58622,-6.78068 0.58622,-15.1061 z m 238.70049,-18.27769 0.69336,-15.82806 h -1.95307 c -1.07417,0 -9.30022,4.50671 -18.28009,10.0149 l -16.32704,10.01491 -0.72647,11.37747 c -0.39954,6.25759 -0.14679,12.88782 0.56151,14.73384 l 1.28796,3.35641 17.02525,-8.92071 17.02522,-8.9207 z M 117.67007,434.22326 v -16.04598 l -16.34256,-9.7479 c -8.988414,-5.36133 -16.902437,-9.74789 -17.586735,-9.74789 -0.684285,0 -1.244172,7.81929 -1.244172,17.37617 v 17.37616 l 14.655607,8.25446 c 8.06059,4.53995 15.97461,8.32793 17.58673,8.41771 l 2.93113,0.16322 z m 344.75853,7.80937 16.35573,-8.23662 v -17.73633 -17.73635 l -17.0005,9.41953 -17.00051,9.41955 -0.68896,16.5534 -0.68893,16.55343 h 1.3337 c 0.73354,0 8.69381,-3.70648 17.68947,-8.23661 z M 63.737418,402.66612 v -19.46439 l -10.552042,-5.12658 -10.552043,-5.12659 v 19.44026 19.44026 l 8.793367,5.09683 c 4.836355,2.80327 9.584779,5.12108 10.552043,5.15071 l 1.758675,0.0539 z M 511.6129,415.32525 c 3.22423,-2.00118 6.63749,-4.71807 7.58503,-6.03754 l 1.72277,-2.39908 0.0358,-15.43722 0.0358,-15.43727 -1.4064,-1.4064 -1.4064,-1.4064 -6.21451,2.64147 c -3.41797,1.45278 -8.06113,4.18374 -10.31809,6.0688 l -4.10357,3.42737 v 18.32215 18.32216 l 4.10357,-1.50979 c 2.25696,-0.83038 6.74158,-3.14708 9.96581,-5.14825 z M 63.737418,330.72712 V 312.0156 l -9.286165,-4.73747 c -5.107407,-2.60558 -9.855818,-4.73744 -10.552043,-4.73744 h -1.265877 v 19.85673 19.85676 l 6.448478,3.49835 c 3.54665,1.92409 8.295074,3.5406 10.55203,3.59222 l 4.103577,0.0938 z m 0,-67.85791 c 0,-8.92237 -0.657747,-17.93656 -1.461648,-20.03152 l -1.46166,-3.80901 -9.090382,-4.63757 -9.090395,-4.63758 v 20.72632 20.72632 l 7.620916,3.7928 c 4.191509,2.08605 8.939933,3.86029 10.552043,3.94279 l 2.931126,0.15007 z M 63.246044,187.58018 62.564968,168.7605 52.59915,162.82584 42.633333,156.8912 v 21.1621 21.16212 l 6.448478,3.49836 c 3.54665,1.92407 8.337747,3.54058 10.646881,3.59222 l 4.198403,0.0938 z M 291.19252,439.12097 c 0,-21.81827 -0.6989,-87.27773 -1.55313,-145.4655 l -1.55311,-105.79595 7.67264,-4.21298 c 4.21997,-2.31713 16.78991,-9.57555 27.93321,-16.12977 11.14334,-6.55426 48.22349,-28.61092 82.40037,-49.01483 34.17689,-20.403916 64.514,-38.641004 67.41582,-40.526864 l 5.27601,-3.428857 V 219.87246 365.19868 l -48.65662,29.28381 c -26.76115,16.10612 -65.5399,39.58597 -86.17499,52.17747 -20.63511,12.59151 -40.94779,24.97197 -45.13929,27.51212 l -7.62091,4.61844 z M 267.65979,165.6086 C 265.77131,163.80851 233.09767,143.66494 195.05171,120.84508 157.00573,98.02524 125.05734,78.576538 124.05529,77.625759 l -1.82194,-1.728728 0.64949,-35.879333 0.64947,-35.8793338 69.35086,73.5782118 c 38.14297,40.468004 72.8102,77.535214 77.03833,82.371574 l 7.68746,8.79337 h -3.25779 c -1.79178,0 -4.80288,-1.4728 -6.69138,-3.27292 z m 31.97194,-13.72759 c 9.09096,-9.35028 42.42958,-44.43582 74.08585,-77.967861 31.65626,-33.532034 59.80496,-62.977489 62.55263,-65.4343498 l 4.99576,-4.4670065 V 40.212769 76.413745 l -62.72601,37.277505 c -34.49931,20.50262 -68.73552,41.30786 -76.08052,46.23389 -7.34497,4.92601 -14.705,8.95638 -16.35559,8.95638 h -3.0011 z"
       id="path9" />
  </g>
</svg>
