<?xml version="1.0" encoding="UTF-8" standalone="no"?>
<!-- Created with Inkscape (http://www.inkscape.org/) -->

<svg
   version="1.1"
   id="svg1"
   width="437.39716"
   height="383.5072"
   viewBox="0 0 437.39716 383.5072"
   xmlns="http://www.w3.org/2000/svg"
   xmlns:svg="http://www.w3.org/2000/svg">
  <defs
     id="defs1" />
  <g
     id="g1"
     transform="translate(-7.4885773,-32.036976)">
    <path
       style="fill:#33dc15;stroke-width:1.67471"
       d="m 233.23042,414.42783 c -0.61407,-0.61406 -1.11648,-1.74448 -1.11648,-2.51205 v -1.39559 l 44.79833,-0.029 44.79835,-0.029 13.39763,-17.90581 c 7.3687,-9.84818 23.85257,-31.37127 36.63082,-47.82907 l 23.23317,-29.92327 1.67464,1.67465 1.67461,1.67461 -3.91687,5.57182 c -2.15425,3.0645 -18.87649,24.97745 -37.16048,48.69545 L 324.0005,415.5442 h -44.82681 -44.82682 z m -50.52026,-22.41436 c -22.10609,-0.6247 -43.77258,-1.23795 -48.14775,-1.36278 l -7.95484,-0.22695 v -2.80205 c 0,-1.54112 2.23251,-12.65696 4.96116,-24.70189 2.72862,-12.04492 8.11819,-37.7258 11.97679,-57.06864 3.85862,-19.34283 7.51202,-36.56538 8.11869,-38.27231 l 1.10304,-3.10351 19.33985,17.3385 c 10.63691,9.53617 39.59802,35.4253 64.35804,57.53141 24.76001,22.1061 48.4172,43.37831 52.57155,47.27158 l 7.55335,7.07867 -36.84347,-0.27311 c -20.26392,-0.15022 -54.93031,-0.7842 -77.03641,-1.40892 z m 132.85986,0.48526 c -0.30701,-0.70095 -17.18663,-16.07008 -37.51023,-34.15366 -20.32359,-18.08358 -41.04805,-36.65467 -46.05435,-41.26909 l -9.10238,-8.38985 1.10476,-1.12665 c 0.60761,-0.61966 17.564,-6.3069 37.68085,-12.63833 20.11684,-6.33141 61.2474,-19.34622 91.40121,-28.92181 30.15383,-9.57557 55.14672,-17.08854 55.53979,-16.69549 0.39305,0.39307 -10.73213,18.92914 -24.72262,41.19127 -13.99052,22.26214 -34.46172,54.57176 -45.49157,71.79916 -11.02984,17.2274 -20.55668,31.35772 -21.17074,31.4007 -0.61405,0.0431 -1.36767,-0.49531 -1.67472,-1.19625 z M 107.05071,361.73563 C 104.32638,356.78962 97.721003,344.82991 92.372091,335.15848 87.023176,325.48707 77.575225,308.5307 71.376665,297.47763 65.178073,286.42459 53.591162,265.64355 45.62796,251.29756 37.664757,236.95158 31.149408,224.79672 31.149408,224.2868 c 0,-0.50995 2.072446,-1.72745 4.605436,-2.7056 2.532991,-0.97814 30.43323,-10.22215 62.00053,-20.54227 31.567296,-10.32012 57.752946,-18.406 58.190296,-17.96864 0.43735,0.43734 -0.28959,4.50302 -1.61545,9.03484 -1.32585,4.5318 -6.65603,27.8337 -11.84484,51.78197 -5.1888,23.94827 -13.08116,59.74508 -17.53858,79.54846 -4.45743,19.80338 -9.19305,38.54564 -10.5236,41.64947 l -2.41917,5.64334 z M 47.68777,299.57102 c -2.904558,-5.7568 -10.347635,-19.5103 -16.540188,-30.56336 -6.192543,-11.05305 -14.049133,-25.6374 -17.459086,-32.40968 l -6.1999188,-12.31325 0.9847066,-0.98471 0.9847164,-0.98472 2.3670528,2.41238 c 1.301889,1.32681 12.193025,20.41245 24.202527,42.41255 l 21.835475,40.00019 -0.895389,1.44875 c -0.492446,0.7968 -1.593663,1.44876 -2.447126,1.44876 h -1.55176 z m 246.39022,-31.30856 c 0,-1.06752 2.98606,-14.14804 6.63567,-29.06784 3.64961,-14.91981 12.7307,-54.63393 20.18018,-88.25363 7.44948,-33.61968 13.97919,-62.877529 14.51047,-65.017423 l 0.96595,-3.890686 1.28348,1.378632 c 0.70593,0.758253 8.79461,15.320562 17.97486,32.360687 9.18025,17.04012 26.63747,49.71613 38.7938,72.61338 12.15635,22.89724 21.87052,41.84343 21.58705,42.10264 -0.28345,0.2592 -26.89197,8.95504 -59.13004,19.32405 -32.23806,10.36903 -59.55668,19.19889 -60.70804,19.62194 l -2.09338,0.76916 z m 126.69099,-69.28881 -19.5099,-37.37728 v -2.81563 -2.81563 l 2.09339,0.0375 2.09336,0.0375 19.76195,38.89936 c 10.86909,21.39464 19.7241,39.46458 19.67778,40.15539 -0.0463,0.69082 -1.10174,1.25603 -2.34542,1.25603 h -2.26125 z M 42.172679,199.9261 C 43.841893,197.39311 59.067887,173.08896 76.008194,145.91688 92.948509,118.7448 112.123,88.407307 118.61815,78.500224 l 11.80936,-18.012869 2.69547,2.103177 c 1.4825,1.156754 18.87749,17.175518 38.65553,35.597273 19.77803,18.421755 39.3327,36.609225 43.4548,40.416625 l 7.49474,6.92251 -82.81035,27.08663 c -45.545708,14.89764 -86.147497,28.17369 -90.226197,29.50231 -4.078711,1.32861 -8.121868,2.41566 -8.984813,2.41566 H 39.137708 Z M 288.14325,182.55109 c -4.56513,-4.70903 -14.0411,-13.55933 -21.05768,-19.66731 -7.01659,-6.10798 -34.71201,-31.31787 -61.54539,-56.02195 -26.83337,-24.704118 -48.7885,-45.428581 -48.78919,-46.054387 l -9.8e-4,-1.137841 48.14903,0.361349 c 26.48194,0.198732 64.16337,0.847363 83.73647,1.441401 l 35.58746,1.080062 v 2.387222 c 0,1.31299 -4.07239,21.388834 -9.04977,44.612974 -4.97737,23.22416 -10.73305,50.51553 -12.79042,60.64749 -2.05736,10.13196 -4.23528,18.98225 -4.83981,19.6673 l -1.09916,1.24558 z M 56.273002,122.1919 l 0.0031,-2.23294 33.734826,-43.960995 33.734832,-43.960991 h 49.99738 49.99737 v 2.512053 2.512064 H 175.27808 126.81565 L 93.636235,80.070979 60.456819,123.0809 l -2.093383,0.67197 -2.093383,0.67197 z"
       id="path1" />
  </g>
</svg>
